<svg width="18" height="18" viewBox="0 0 18 18" fill="none" xmlns="http://www.w3.org/2000/svg">
<path d="M16.4475 5.07001L13.92 15.2175C13.74 15.975 13.065 16.5 12.285 16.5H2.42998C1.29748 16.5 0.487495 15.39 0.824995 14.3025L3.98249 4.16254C4.19999 3.45754 4.8525 2.96997 5.5875 2.96997H14.8125C15.525 2.96997 16.1175 3.40497 16.365 4.00497C16.5075 4.32747 16.5375 4.69501 16.4475 5.07001Z" stroke="#7988A9" stroke-width="1.5" stroke-miterlimit="10"/>
<path d="M12 16.5H15.585C16.5525 16.5 17.31 15.6825 17.2425 14.715L16.5 4.5" stroke="#7988A9" stroke-width="1.5" stroke-miterlimit="10" stroke-linecap="round" stroke-linejoin="round"/>
<path d="M7.25999 4.785L8.04 1.54504" stroke="#7988A9" stroke-width="1.5" stroke-miterlimit="10" stroke-linecap="round" stroke-linejoin="round"/>
<path d="M12.285 4.79257L12.99 1.5376" stroke="#7988A9" stroke-width="1.5" stroke-miterlimit="10" stroke-linecap="round" stroke-linejoin="round"/>
<path d="M5.77501 9H11.775" stroke="#7988A9" stroke-width="1.5" stroke-miterlimit="10" stroke-linecap="round" stroke-linejoin="round"/>
<path d="M5.02501 12H11.025" stroke="#7988A9" stroke-width="1.5" stroke-miterlimit="10" stroke-linecap="round" stroke-linejoin="round"/>
</svg>
