<svg width="18" height="18" viewBox="0 0 18 18" fill="none" xmlns="http://www.w3.org/2000/svg">
<path d="M12 1.5H6C3 1.5 1.5 3 1.5 6V15.75C1.5 16.1625 1.8375 16.5 2.25 16.5H12C15 16.5 16.5 15 16.5 12V6C16.5 3 15 1.5 12 1.5Z" stroke="#7988A9" stroke-width="1.5" stroke-linecap="round" stroke-linejoin="round"/>
<path d="M9.68251 5.87999L5.79 9.77249C5.64 9.92249 5.49751 10.215 5.46751 10.425L5.25751 11.91C5.18251 12.45 5.55751 12.825 6.09751 12.75L7.58249 12.54C7.79249 12.51 8.08501 12.3675 8.23501 12.2175L12.1275 8.32499C12.795 7.65749 13.1175 6.87749 12.1275 5.88749C11.1375 4.88999 10.3575 5.20499 9.68251 5.87999Z" stroke="#7988A9" stroke-width="1.5" stroke-miterlimit="10" stroke-linecap="round" stroke-linejoin="round"/>
<path d="M9.12751 6.43494C9.45751 7.61244 10.38 8.54244 11.565 8.87244" stroke="#7988A9" stroke-width="1.5" stroke-miterlimit="10" stroke-linecap="round" stroke-linejoin="round"/>
</svg>
