<svg width="20" height="20" viewBox="0 0 20 20" fill="none" xmlns="http://www.w3.org/2000/svg">
<path d="M8.75008 16.5834V3.41669C8.75008 2.16669 8.21675 1.66669 6.89175 1.66669H3.52508C2.20008 1.66669 1.66675 2.16669 1.66675 3.41669V16.5834C1.66675 17.8334 2.20008 18.3334 3.52508 18.3334H6.89175C8.21675 18.3334 8.75008 17.8334 8.75008 16.5834Z" stroke="#7988A9" stroke-width="1.5" stroke-linecap="round" stroke-linejoin="round"/>
<path d="M18.3333 16.5834V3.41669C18.3333 2.16669 17.8 1.66669 16.475 1.66669H13.1083C11.7833 1.66669 11.25 2.16669 11.25 3.41669V16.5834C11.25 17.8334 11.7833 18.3334 13.1083 18.3334H16.475C17.8 18.3334 18.3333 17.8334 18.3333 16.5834Z" stroke="#7988A9" stroke-width="1.5" stroke-linecap="round" stroke-linejoin="round"/>
</svg>
